<svg width="140" height="141" viewBox="0 0 140 141" fill="none" xmlns="http://www.w3.org/2000/svg">
<g clip-path="url(#clip0_2315_49467)">
<mask id="mask0_2315_49467" style="mask-type:alpha" maskUnits="userSpaceOnUse" x="0" y="0" width="140" height="141">
<circle cx="70" cy="70.5" r="70" fill="#BDBDBD"/>
</mask>
<g mask="url(#mask0_2315_49467)">
<circle cx="70" cy="70.5" r="70" fill="#EEEEEE"/>
<path d="M33.6 31.0362C33.6 26.285 37.1726 22.4333 41.5795 22.4333H98.6332C103.04 22.4333 106.613 26.285 106.613 31.0362V162.23C106.613 166.982 103.04 170.833 98.6332 170.833H41.5795C37.1726 170.833 33.6 166.982 33.6 162.23V31.0362Z" fill="#EFF9FB"/>
<path fill-rule="evenodd" clip-rule="evenodd" d="M98.6332 22.8323H41.5795C37.4207 22.8323 33.999 26.4765 33.999 31.0362V162.23C33.999 166.79 37.4207 170.434 41.5795 170.434H98.6332C102.792 170.434 106.214 166.79 106.214 162.23V31.0362C106.214 26.4765 102.792 22.8323 98.6332 22.8323ZM41.5795 22.4333C37.1726 22.4333 33.6 26.285 33.6 31.0362V162.23C33.6 166.982 37.1726 170.833 41.5795 170.833H98.6332C103.04 170.833 106.613 166.982 106.613 162.23V31.0362C106.613 26.285 103.04 22.4333 98.6332 22.4333H41.5795Z" fill="#C8DCE0"/>
<path d="M35.9938 31.7273C35.9938 27.9163 38.8519 24.827 42.3775 24.827H98.2342C101.76 24.827 104.618 27.9163 104.618 31.7273V161.54C104.618 165.35 101.76 168.44 98.2342 168.44H42.3775C38.8519 168.44 35.9938 165.35 35.9938 161.54V31.7273Z" fill="black"/>
<path fill-rule="evenodd" clip-rule="evenodd" d="M98.2342 25.2259H42.3775C39.1009 25.2259 36.3928 28.1068 36.3928 31.7273V161.54C36.3928 165.16 39.1009 168.041 42.3775 168.041H98.2342C101.511 168.041 104.219 165.16 104.219 161.54V31.7273C104.219 28.1068 101.511 25.2259 98.2342 25.2259ZM42.3775 24.827C38.8519 24.827 35.9938 27.9163 35.9938 31.7273V161.54C35.9938 165.35 38.8519 168.44 42.3775 168.44H98.2342C101.76 168.44 104.618 165.35 104.618 161.54V31.7273C104.618 27.9163 101.76 24.827 98.2342 24.827H42.3775Z" fill="#CCE1E6"/>
<path d="M89.1333 54.8667H50.8667V93.1333H89.1333V54.8667Z" fill="white"/>
<path d="M53.1859 57.1859V69.8H65.8V57.1859H53.1859ZM63.998 67.998H54.9879V58.9879H63.998V67.998Z" fill="black"/>
<path d="M74.2 57.1859V69.8H86.8141V57.1859H74.2ZM85.0121 67.998H76.002V58.9879H85.0121V67.998Z" fill="black"/>
<path d="M53.1859 78.2V90.8142H65.8V78.2H53.1859ZM63.998 89.0122H54.9879V80.0021H63.998V89.0122Z" fill="black"/>
<path d="M62.196 60.7899H56.7899V66.196H62.196V60.7899Z" fill="black"/>
<path d="M83.2101 60.7899H77.804V66.196H83.2101V60.7899Z" fill="black"/>
<path d="M62.196 81.8041H56.7899V87.2102H62.196V81.8041Z" fill="black"/>
<path fill-rule="evenodd" clip-rule="evenodd" d="M47.6 51.6H57.4V52.5333H48.5333V61.4H47.6V51.6Z" fill="#D9DB71"/>
<path fill-rule="evenodd" clip-rule="evenodd" d="M92.4 51.6V61.4H91.4667V52.5333L82.6 52.5333V51.6L92.4 51.6Z" fill="#D9DB71"/>
<path fill-rule="evenodd" clip-rule="evenodd" d="M47.6 96.4H57.4V95.4667H48.5333V86.6H47.6V96.4Z" fill="#D9DB71"/>
<path fill-rule="evenodd" clip-rule="evenodd" d="M92.4 96.4V86.6H91.4667V95.4667H82.6V96.4H92.4Z" fill="#D9DB71"/>
<path fill-rule="evenodd" clip-rule="evenodd" d="M76.8049 127C76.8049 130.758 73.7582 133.805 70 133.805C66.2418 133.805 63.1951 130.758 63.1951 127C63.1951 123.242 66.2418 120.195 70 120.195C73.7582 120.195 76.8049 123.242 76.8049 127ZM79 127C79 131.971 74.9706 136 70 136C65.0294 136 61 131.971 61 127C61 122.029 65.0294 118 70 118C74.9706 118 79 122.029 79 127ZM70 132.488C73.0308 132.488 75.4878 130.031 75.4878 127C75.4878 123.969 73.0308 121.512 70 121.512C66.9692 121.512 64.5122 123.969 64.5122 127C64.5122 130.031 66.9692 132.488 70 132.488Z" fill="white"/>
</g>
</g>
<defs>
<clipPath id="clip0_2315_49467">
<rect width="140" height="140" fill="white" transform="translate(0 0.5)"/>
</clipPath>
</defs>
</svg>
