<svg width="113" height="32" viewBox="0 0 113 32" fill="none" xmlns="http://www.w3.org/2000/svg">
<path d="M112.25 28.2222C112.25 28.6249 112.167 29.0237 112.006 29.3958C111.845 29.7678 111.608 30.1058 111.31 30.3905C111.012 30.6751 110.658 30.9008 110.268 31.0546C109.878 31.2085 109.461 31.2874 109.04 31.287H3.96049C3.10882 31.2879 2.29167 30.9655 1.68874 30.3907C1.08581 29.816 0.746476 29.0359 0.745366 28.2222V3.78104C0.746475 2.9669 1.08567 2.18646 1.68848 1.61108C2.29129 1.0357 3.10843 0.712409 3.96049 0.712198H109.039C109.46 0.712198 109.878 0.791582 110.268 0.945815C110.657 1.10005 111.011 1.32611 111.309 1.61109C111.608 1.89607 111.844 2.23438 112.005 2.60671C112.167 2.97903 112.25 3.37807 112.25 3.78104L112.25 28.2222Z" fill="white"/>
<path d="M109.04 32H3.96049C2.91133 31.9998 1.90511 31.6019 1.16261 30.8937C0.420115 30.1854 0.00199626 29.2246 0 28.2222V3.78184C0.00155208 2.77887 0.419395 1.81745 1.16187 1.10846C1.90434 0.399485 2.91081 0.000846542 3.96049 0H109.039C110.088 0.00126895 111.094 0.400043 111.837 1.10893C112.579 1.81782 112.997 2.779 112.999 3.78184V28.2222C113.001 30.3059 111.221 32 109.04 32Z" fill="#A6A6A6"/>
<path d="M112.25 28.2222C112.25 28.6249 112.167 29.0237 112.006 29.3958C111.845 29.7678 111.608 30.1058 111.31 30.3905C111.012 30.6751 110.658 30.9008 110.268 31.0546C109.878 31.2085 109.461 31.2874 109.04 31.287H3.96049C3.10882 31.2879 2.29167 30.9655 1.68874 30.3907C1.08581 29.816 0.746476 29.0359 0.745366 28.2222V3.78104C0.746475 2.9669 1.08567 2.18646 1.68848 1.61108C2.29129 1.0357 3.10843 0.712409 3.96049 0.712198H109.039C109.46 0.712198 109.878 0.791582 110.268 0.945815C110.657 1.10005 111.011 1.32611 111.309 1.61109C111.608 1.89607 111.844 2.23438 112.005 2.60671C112.167 2.97903 112.25 3.37807 112.25 3.78104L112.25 28.2222Z" fill="black"/>
<path d="M25.2319 15.8316C25.2076 13.2524 27.442 11.9977 27.5442 11.9393C26.2788 10.1764 24.3174 9.93553 23.6281 9.91633C21.9808 9.75068 20.3828 10.8582 19.5437 10.8582C18.6877 10.8582 17.3955 9.93233 16.0028 9.95954C14.2105 9.98595 12.5339 10.9774 11.6143 12.517C9.71656 15.6563 11.1319 20.2696 12.9501 22.8071C13.8596 24.0506 14.9224 25.4374 16.3135 25.3886C17.6744 25.3358 18.1827 24.5604 19.8251 24.5604C21.4523 24.5604 21.9297 25.3886 23.3484 25.3574C24.809 25.3358 25.7285 24.109 26.6062 22.8551C27.6573 21.4315 28.0794 20.0279 28.0961 19.9559C28.0626 19.9447 25.2604 18.922 25.2319 15.8316ZM22.5519 8.24707C23.2839 7.37243 23.7847 6.1825 23.6457 4.97497C22.5863 5.01978 21.2614 5.67516 20.4984 6.5306C19.8234 7.2844 19.2204 8.51994 19.3762 9.68186C20.5662 9.76669 21.7881 9.10811 22.5519 8.24707Z" fill="white"/>
<path d="M109.04 2.02341e-06H52.756L74.8012 32L109.04 32C110.089 31.9992 111.095 31.6007 111.838 30.8921C112.58 30.1835 112.998 29.2225 113 28.2198V3.78184C112.998 2.77894 112.58 1.81764 111.838 1.1087C111.095 0.399766 110.089 0.00105985 109.04 2.02341e-06Z" fill="url(#paint0_linear_2315_50016)"/>
<path d="M44.9439 25.2101H43.042L42.0001 22.0821H38.3788L37.3864 25.2101H35.5347L39.1233 14.5608H41.3393L44.9439 25.2101ZM41.6861 20.7697L40.7439 17.9889C40.6442 17.7049 40.4566 17.0359 40.1819 15.9828H40.1484C40.0379 16.4357 39.8612 17.1047 39.6191 17.9889L38.6929 20.7697H41.6861ZM54.1546 21.2763C54.1546 22.5822 53.7836 23.6145 53.0407 24.3723C52.3758 25.0469 51.5492 25.3838 50.5634 25.3838C49.499 25.3838 48.7335 25.0213 48.2687 24.2947V28.3238H46.4832V20.0551C46.4832 19.2349 46.4606 18.3939 46.417 17.5312H47.9873L48.087 18.7484H48.1205C48.7159 17.8313 49.6196 17.3728 50.8323 17.3728C51.7803 17.3728 52.5718 17.7305 53.2049 18.4467C53.8372 19.1645 54.1546 20.1071 54.1546 21.2763ZM52.3356 21.3387C52.3356 20.5913 52.1597 19.9751 51.8063 19.4894C51.4202 18.9844 50.9018 18.7316 50.2519 18.7316C49.8114 18.7316 49.4111 18.8724 49.0535 19.1501C48.695 19.4301 48.4605 19.7958 48.3508 20.2488C48.3018 20.4182 48.274 20.5925 48.2679 20.7681V22.0493C48.2679 22.607 48.4471 23.0783 48.8056 23.4641C49.164 23.8482 49.6297 24.041 50.2025 24.041C50.875 24.041 51.3984 23.7921 51.7728 23.2984C52.148 22.8031 52.3356 22.1501 52.3356 21.3387ZM63.398 21.2763C63.398 22.5822 63.027 23.6145 62.2841 24.3723C61.6183 25.0469 60.7926 25.3838 59.806 25.3838C58.7415 25.3838 57.9761 25.0213 57.5113 24.2947V28.3238H55.7257V20.0551C55.7257 19.2349 55.7031 18.3939 55.6596 17.5312H57.2299L57.3295 18.7484H57.363C57.9577 17.8313 58.8613 17.3728 60.0748 17.3728C61.022 17.3728 61.8135 17.7305 62.4483 18.4467C63.0797 19.1645 63.398 20.1071 63.398 21.2763ZM61.5781 21.3387C61.5781 20.5913 61.4014 19.9751 61.048 19.4894C60.6619 18.9844 60.1452 18.7316 59.4953 18.7316C59.0548 18.7316 58.6544 18.8724 58.2952 19.1501C57.9367 19.4301 57.703 19.7958 57.5933 20.2488C57.5389 20.46 57.5096 20.6321 57.5096 20.7681V22.0493C57.5096 22.607 57.6897 23.0783 58.0464 23.4641C58.4049 23.8474 58.8705 24.041 59.445 24.041C60.1184 24.041 60.6418 23.7921 61.0153 23.2984C61.3905 22.8031 61.5781 22.1501 61.5781 21.3387ZM73.7326 22.2229C73.7326 23.1296 73.401 23.8666 72.7419 24.4355C72.0166 25.0565 71.0041 25.3678 69.706 25.3678C68.5067 25.3678 67.5452 25.1469 66.82 24.7044L67.2328 23.2824C68.0159 23.7257 68.876 23.9466 69.8123 23.9466C70.4857 23.9466 71.0091 23.8009 71.3826 23.5121C71.757 23.2224 71.9462 22.8351 71.9462 22.3517C71.9462 21.9188 71.7896 21.5563 71.4823 21.261C71.1732 20.9666 70.6624 20.6921 69.9446 20.44C67.9933 19.7446 67.0168 18.7276 67.0168 17.3896C67.0168 16.5157 67.3618 15.8003 68.0502 15.241C68.7387 14.6824 69.6515 14.4032 70.7872 14.4032C71.8014 14.4032 72.6464 14.572 73.3172 14.9089L72.8692 16.2997C72.2377 15.9732 71.525 15.8099 70.7277 15.8099C70.0979 15.8099 69.6038 15.958 69.2504 16.2525C68.9531 16.5157 68.8023 16.8366 68.8023 17.2175C68.8023 17.6377 68.974 17.9865 69.3157 18.2602C69.6122 18.5123 70.1532 18.7868 70.9354 19.0812C71.8952 19.4509 72.6003 19.8815 73.0517 20.376C73.5065 20.8705 73.7326 21.4875 73.7326 22.2229ZM79.6512 18.8116H77.6831V22.5398C77.6831 23.4881 78.0298 23.961 78.7249 23.961C79.044 23.961 79.3086 23.9354 79.518 23.8818L79.5674 25.1773C79.2157 25.303 78.7525 25.3662 78.1788 25.3662C77.4737 25.3662 76.9226 25.1605 76.5248 24.7492C76.1287 24.3379 75.9293 23.6489 75.9293 22.679V18.8084H74.7569V17.528H75.9293V16.122L77.6831 15.6163V17.528H79.6512V18.8116ZM88.5135 21.3075C88.5135 22.4878 88.16 23.4569 87.4549 24.2147C86.7171 24.9949 85.7355 25.3838 84.5119 25.3838C83.3311 25.3838 82.3923 25.0101 81.6921 24.2635C80.992 23.5153 80.6419 22.5726 80.6419 21.4355C80.6419 20.2456 81.0037 19.2709 81.7248 18.5131C82.4475 17.7545 83.4207 17.3752 84.6443 17.3752C85.8234 17.3752 86.7707 17.7497 87.4875 18.4971C88.1726 19.2221 88.5135 20.1583 88.5135 21.3075ZM86.6626 21.3467C86.6626 20.6433 86.5035 20.0399 86.1844 19.535C85.81 18.9252 85.2741 18.6203 84.5798 18.6203C83.8646 18.6203 83.316 18.9252 82.9425 19.535C82.6226 20.0399 82.4634 20.6537 82.4634 21.3787C82.4634 22.0829 82.6226 22.6878 82.9425 23.1912C83.3286 23.8009 83.8671 24.1058 84.5647 24.1058C85.2473 24.1058 85.7824 23.7945 86.1693 23.176C86.4976 22.659 86.6626 22.0517 86.6626 21.3467ZM94.3198 19.0316C94.1341 18.9996 93.9457 18.9838 93.757 18.9844C93.1289 18.9844 92.6431 19.2101 92.3014 19.6646C92.005 20.0647 91.8559 20.5705 91.8559 21.181V25.2101H90.0704V19.9495C90.072 19.1434 90.0546 18.3374 90.0184 17.532H91.5737L91.639 19.0012H91.6884C91.8777 18.4963 92.1741 18.089 92.5812 17.7841C92.9537 17.5177 93.4064 17.3734 93.8717 17.3728C94.0367 17.3728 94.1858 17.384 94.3181 17.404L94.3198 19.0316ZM102.305 21.0074C102.31 21.2667 102.288 21.5259 102.24 21.7812H96.8833C96.9034 22.5398 97.1631 23.1208 97.6605 23.5209C98.1119 23.8778 98.6957 24.057 99.4126 24.057C100.206 24.057 100.929 23.937 101.58 23.6945L101.86 24.878C101.099 25.1949 100.201 25.3526 99.1655 25.3526C97.9193 25.3526 96.9411 25.0021 96.2293 24.3027C95.5191 23.6025 95.1631 22.6614 95.1631 21.4827C95.1631 20.3256 95.4939 19.3613 96.1564 18.5923C96.8498 17.7713 97.787 17.3608 98.9662 17.3608C100.124 17.3608 101.001 17.7713 101.597 18.5923C102.068 19.2429 102.305 20.0495 102.305 21.0074ZM100.603 20.5649C100.615 20.0583 100.498 19.6222 100.256 19.2533C99.9469 18.778 99.4712 18.5411 98.8339 18.5411C98.2501 18.5411 97.7744 18.7724 97.4126 19.2365C97.1153 19.6054 96.9386 20.0487 96.8842 20.5633L100.603 20.5649Z" fill="white"/>
<path d="M37.8638 10.7958C37.3671 10.7958 36.9375 10.7726 36.5799 10.7334V5.58474C37.08 5.51091 37.5855 5.47453 38.0916 5.47591C40.1392 5.47591 41.0822 6.43857 41.0822 8.0078C41.0822 9.8179 39.9684 10.7958 37.8638 10.7958ZM38.1636 6.13609C37.8872 6.13609 37.6519 6.15209 37.4567 6.1905V10.1044C37.5623 10.1204 37.7649 10.1276 38.0497 10.1276C39.3913 10.1276 40.1551 9.39779 40.1551 8.03101C40.1551 6.81227 39.4642 6.13609 38.1636 6.13609ZM44.021 10.835C42.8669 10.835 42.119 10.0116 42.119 8.89365C42.119 7.72853 42.8828 6.8979 44.0863 6.8979C45.2236 6.8979 45.9882 7.68211 45.9882 8.83203C45.9882 10.0116 45.2002 10.835 44.021 10.835ZM44.0545 7.51087C43.4205 7.51087 43.0143 8.07742 43.0143 8.86964C43.0143 9.64665 43.4289 10.2132 44.0461 10.2132C44.6633 10.2132 45.0779 9.60744 45.0779 8.85364C45.0779 8.08543 44.6717 7.51087 44.0545 7.51087ZM52.5692 6.97552L51.3339 10.7494H50.5291L50.0174 9.11051C49.8902 8.70963 49.7842 8.30287 49.7 7.89177H49.6833C49.6188 8.30309 49.4965 8.7152 49.3667 9.11051L48.8223 10.7494H48.0091L46.8467 6.97552H47.7486L48.1959 8.76961C48.3014 9.19693 48.3902 9.60024 48.4639 9.98115H48.4806C48.5451 9.66346 48.6506 9.26655 48.8056 8.77762L49.3667 6.97632H50.0819L50.6187 8.7392C50.7485 9.16652 50.8541 9.58584 50.9361 9.98195H50.9596C51.0165 9.59384 51.1061 9.18173 51.2276 8.7392L51.7075 6.97632L52.5692 6.97552ZM57.1168 10.7494H56.2391V8.58236C56.2391 7.91498 55.9711 7.58049 55.4427 7.58049C54.9226 7.58049 54.565 8.0078 54.565 8.50474V10.7494H53.6873V8.05422C53.6873 7.72052 53.6789 7.36283 53.6546 6.97472H54.4268L54.4678 7.55728H54.4921C54.7283 7.15397 55.2073 6.8979 55.7442 6.8979C56.5733 6.8979 57.1176 7.50366 57.1176 8.48954L57.1168 10.7494ZM59.5372 10.7494H58.6586V5.24384H59.5372V10.7494ZM62.7372 10.835C61.584 10.835 60.8353 10.0116 60.8353 8.89365C60.8353 7.72853 61.5991 6.8979 62.8017 6.8979C63.9398 6.8979 64.7036 7.68211 64.7036 8.83203C64.7045 10.0116 63.9156 10.835 62.7372 10.835ZM62.7699 7.51087C62.1359 7.51087 61.7297 8.07742 61.7297 8.86964C61.7297 9.64665 62.1451 10.2132 62.7607 10.2132C63.3787 10.2132 63.7924 9.60744 63.7924 8.85364C63.7933 8.08543 63.3879 7.51087 62.7699 7.51087ZM68.1641 10.7494L68.1005 10.3148H68.077C67.809 10.6645 67.4179 10.835 66.9221 10.835C66.2145 10.835 65.712 10.3613 65.712 9.72428C65.712 8.79282 66.557 8.31109 68.0201 8.31109V8.24147C68.0201 7.74453 67.7446 7.49566 67.2002 7.49566C66.8108 7.49566 66.4691 7.58929 66.1684 7.77574L65.99 7.22439C66.3552 7.00673 66.8108 6.8979 67.3459 6.8979C68.3777 6.8979 68.8986 7.41804 68.8986 8.45913V9.84911C68.8986 10.23 68.9162 10.5253 68.9556 10.7502L68.1641 10.7494ZM68.0435 8.86964C67.0687 8.86964 66.5796 9.0953 66.5796 9.63065C66.5796 10.0268 66.8317 10.2204 67.1818 10.2204C67.6281 10.2204 68.0435 9.89472 68.0435 9.4522V8.86964ZM73.1606 10.7494L73.1196 10.1436H73.0953C72.8432 10.6013 72.4194 10.835 71.8273 10.835C70.8751 10.835 70.1699 10.0348 70.1699 8.90885C70.1699 7.72853 70.9011 6.8971 71.8993 6.8971C72.4278 6.8971 72.8022 7.06755 73.0132 7.41004H73.0308V5.24384H73.9093V9.73228C73.9093 10.0972 73.9185 10.4389 73.942 10.7494H73.1606ZM73.0308 8.52875C73.0308 8.0006 72.6648 7.55008 72.1062 7.55008C71.4555 7.55008 71.0577 8.10143 71.0577 8.87764C71.0577 9.63865 71.4706 10.1596 72.0886 10.1596C72.6405 10.1596 73.0308 9.70107 73.0308 9.15772V8.52875ZM79.4795 10.835C78.3262 10.835 77.5784 10.0116 77.5784 8.89365C77.5784 7.72853 78.3422 6.8979 79.5448 6.8979C80.6829 6.8979 81.4467 7.68211 81.4467 8.83203C81.4476 10.0116 80.6595 10.835 79.4795 10.835ZM79.5121 7.51087C78.879 7.51087 78.4728 8.07742 78.4728 8.86964C78.4728 9.64665 78.8874 10.2132 79.5037 10.2132C80.1218 10.2132 80.5355 9.60744 80.5355 8.85364C80.5372 8.08543 80.131 7.51087 79.5121 7.51087ZM86.1668 10.7494H85.2883V8.58236C85.2883 7.91498 85.0203 7.58049 84.4918 7.58049C83.9718 7.58049 83.615 8.0078 83.615 8.50474V10.7494H82.7365V8.05422C82.7365 7.72052 82.7281 7.36283 82.7038 6.97472H83.476L83.517 7.55728H83.5413C83.7766 7.15397 84.2565 6.8971 84.7925 6.8971C85.6216 6.8971 86.1668 7.50286 86.1668 8.48874V10.7494ZM92.072 7.60449H91.1063V9.437C91.1063 9.90353 91.2755 10.1364 91.6172 10.1364C91.7721 10.1364 91.9019 10.1204 92.0066 10.0972L92.0309 10.7342C91.8609 10.7966 91.6331 10.8278 91.35 10.8278C90.6583 10.8278 90.2446 10.4629 90.2446 9.50742V7.60449H89.6684V6.97552H90.2446V6.28413L91.1063 6.03526V6.97472H92.072V7.60449ZM96.7184 10.7494H95.8415V8.59837C95.8415 7.92298 95.5743 7.58129 95.045 7.58129C94.5903 7.58129 94.1665 7.87657 94.1665 8.47433V10.7494H93.2897V5.24384H94.1665V7.51087H94.1841C94.4605 7.09955 94.8608 6.8971 95.3717 6.8971C96.2075 6.8971 96.7184 7.51807 96.7184 8.50474V10.7494ZM101.479 9.06409H98.8447C98.8615 9.77869 99.3564 10.182 100.089 10.182C100.479 10.182 100.837 10.1196 101.154 10.0036L101.29 10.5861C100.917 10.7414 100.477 10.819 99.9653 10.819C98.73 10.819 97.9989 10.0732 97.9989 8.91685C97.9989 7.75974 98.7476 6.8899 99.8665 6.8899C100.876 6.8899 101.509 7.60449 101.509 8.68399C101.514 8.81138 101.504 8.93897 101.479 9.06409ZM100.674 8.46633C100.674 7.88377 100.366 7.47246 99.8053 7.47246C99.3012 7.47246 98.9025 7.89177 98.8456 8.46633H100.674Z" fill="white"/>
<defs>
<linearGradient id="paint0_linear_2315_50016" x1="56.4982" y1="32.085" x2="56.4982" y2="-83.3225" gradientUnits="userSpaceOnUse">
<stop stop-color="#1A1A1A" stop-opacity="0.1"/>
<stop offset="0.123" stop-color="#212121" stop-opacity="0.151"/>
<stop offset="0.308" stop-color="#353535" stop-opacity="0.227"/>
<stop offset="0.532" stop-color="#575757" stop-opacity="0.318"/>
<stop offset="0.783" stop-color="#858585" stop-opacity="0.421"/>
<stop offset="1" stop-color="#B3B3B3" stop-opacity="0.51"/>
</linearGradient>
</defs>
</svg>
