<svg width="161" height="30" viewBox="0 0 161 30" fill="none" xmlns="http://www.w3.org/2000/svg">
<path fill-rule="evenodd" clip-rule="evenodd" d="M15.3182 9.15527e-05C6.85826 9.15527e-05 0 6.71574 0 15.0001C0 23.2843 6.85826 30.0001 15.3182 30.0001C23.7783 30.0001 30.6364 23.2843 30.6364 15.0001C30.6364 6.71574 23.7783 9.15527e-05 15.3182 9.15527e-05Z" fill="#00A898"/>
<path fill-rule="evenodd" clip-rule="evenodd" d="M25.1176 20.9397H21.0508V14.415C21.0508 13.2676 20.2466 12.165 18.9371 12.165C17.7194 12.165 16.5244 13.2676 16.5244 14.415V20.9397H12.4578V9.39765H16.5244V10.6125H16.5705C17.4896 9.71265 18.6613 9.0603 19.948 9.0603C22.1079 9.0603 25.1176 10.1177 25.1176 13.335V20.9397Z" fill="white"/>
<path fill-rule="evenodd" clip-rule="evenodd" d="M9.58571 20.9397H5.51904V13.38C5.51904 11.1806 7.33961 9.39767 9.58556 9.39767H9.58571V20.9397Z" fill="white"/>
<path fill-rule="evenodd" clip-rule="evenodd" d="M37.3875 15.1574C37.3875 16.7549 38.6513 18.0149 40.1908 18.0149C41.4084 18.0149 42.1667 17.4749 42.1667 17.4749L43.5451 20.2422C43.5451 20.2422 42.2126 21.2772 39.5932 21.2772C36.1927 21.2772 33.0681 18.5774 33.0681 15.2025C33.0681 11.805 36.1699 9.06033 39.5932 9.06033C42.2126 9.06033 43.5451 10.1402 43.5451 10.1402L42.1667 12.8625C42.1667 12.8625 41.4084 12.3227 40.1908 12.3227C38.6513 12.3227 37.3875 13.5825 37.3875 15.1574Z" fill="white"/>
<path fill-rule="evenodd" clip-rule="evenodd" d="M51.4267 17.8798C53.0121 17.8798 54.1608 16.7549 54.1608 15.1799C54.1608 13.5826 52.943 12.4576 51.4267 12.4576C49.8872 12.4576 48.6694 13.5826 48.6694 15.1799C48.6694 16.7549 49.7723 17.8798 51.4267 17.8798ZM51.4495 9.06024C55.3555 9.06024 58.4804 11.5801 58.4804 15.1799C58.4804 18.7348 55.5163 21.2771 51.4495 21.2771C47.1988 21.2771 44.35 18.7348 44.35 15.1799C44.35 11.5801 47.4746 9.06024 51.4495 9.06024Z" fill="white"/>
<path fill-rule="evenodd" clip-rule="evenodd" d="M60.342 9.39762H64.4089V10.6126H64.4548C65.3739 9.71277 66.5456 9.06027 67.8322 9.06027C69.992 9.06027 73.0019 10.1176 73.0019 13.335V20.9397H68.9352V14.415C68.9352 13.2676 68.131 12.165 66.8213 12.165C65.6037 12.165 64.4089 13.2676 64.4089 14.415V20.9397H60.342V9.39762Z" fill="white"/>
<path fill-rule="evenodd" clip-rule="evenodd" d="M76.0813 5.10037H80.1482V9.39757H82.6296V12.4351H80.1482V16.1024C80.1482 17.1824 80.424 17.6999 81.0672 17.6999C81.5957 17.6999 82.078 17.3399 82.078 17.3399L83.0892 20.5573C83.0892 20.5573 81.7795 21.2773 80.1021 21.2773C76.8626 21.2773 76.0813 18.9149 76.0813 16.8674V12.4351H74.3811V9.39757H76.0813V5.10037Z" fill="white"/>
<path fill-rule="evenodd" clip-rule="evenodd" d="M84.4678 9.39762H88.5346V11.0626H88.5806C88.5806 11.0626 89.8671 9.06027 92.1877 9.06027C93.7042 9.06027 94.7611 9.78012 94.7611 9.78012L93.061 13.1551C93.061 13.1551 92.3026 12.5251 90.9471 12.5251C88.8331 12.5251 88.5346 14.5725 88.5346 14.865V20.9397H84.4678V9.39762Z" fill="white"/>
<path fill-rule="evenodd" clip-rule="evenodd" d="M101.999 17.8798C103.584 17.8798 104.733 16.7549 104.733 15.1799C104.733 13.5826 103.515 12.4576 101.999 12.4576C100.46 12.4576 99.2418 13.5826 99.2418 15.1799C99.2418 16.7549 100.345 17.8798 101.999 17.8798ZM102.022 9.06024C105.928 9.06024 109.053 11.5801 109.053 15.1799C109.053 18.7348 106.089 21.2771 102.022 21.2771C97.7712 21.2771 94.9224 18.7348 94.9224 15.1799C94.9224 11.5801 98.047 9.06024 102.022 9.06024Z" fill="white"/>
<path fill-rule="evenodd" clip-rule="evenodd" d="M110.914 20.9397H114.981V5.10034H110.914V20.9397Z" fill="white"/>
<mask id="mask0_968_7393" style="mask-type:alpha" maskUnits="userSpaceOnUse" x="0" y="0" width="124" height="30">
<path d="M0.000244141 30H123V0H0.000244141V30Z" fill="#00A898"/>
</mask>
<g mask="url(#mask0_968_7393)">
<path fill-rule="evenodd" clip-rule="evenodd" d="M122.977 18.3644C123.187 19.9371 121.947 21.2771 120.358 21.2772C118.926 21.2772 117.739 20.1149 117.739 18.7122C117.739 17.1557 119.108 15.9411 120.714 16.148C121.882 16.2983 122.824 17.2208 122.977 18.3644Z" fill="#00A898"/>
</g>
<path d="M126 5H135.563V9.07273H130.553V10.9515H135.152V15.0121H130.553V21H126V5Z" fill="white"/>
<path d="M137.594 5H142.135V21H137.594V5Z" fill="white"/>
<path d="M155 13L161 21H155.051L152 17L149.267 21H144L149 12.9686L144 5H150L152 9L154 5H159.956L155 13Z" fill="white"/>
</svg>
