<svg width="116" height="22" viewBox="0 0 116 22" fill="none" xmlns="http://www.w3.org/2000/svg">
<path fill-rule="evenodd" clip-rule="evenodd" d="M11.0367 0.000106812C4.94135 0.000106812 0 4.92491 0 11.0001C0 17.0752 4.94135 22.0001 11.0367 22.0001C17.1322 22.0001 22.0734 17.0752 22.0734 11.0001C22.0734 4.92491 17.1322 0.000106812 11.0367 0.000106812Z" fill="#00A898"/>
<path fill-rule="evenodd" clip-rule="evenodd" d="M18.0972 15.3558H15.1671V10.571C15.1671 9.72961 14.5877 8.921 13.6441 8.921C12.7668 8.921 11.9059 9.72961 11.9059 10.571V15.3558H8.97583V6.89162H11.9059V7.78251H11.9391C12.6013 7.12262 13.4455 6.64423 14.3726 6.64423C15.9287 6.64423 18.0972 7.41962 18.0972 9.779V15.3558Z" fill="white"/>
<path fill-rule="evenodd" clip-rule="evenodd" d="M6.90646 15.3558H3.97644V9.81201C3.97644 8.19908 5.28815 6.89162 6.90635 6.89162H6.90646V15.3558Z" fill="white"/>
<path fill-rule="evenodd" clip-rule="evenodd" d="M26.9377 11.1154C26.9377 12.2869 27.8482 13.2109 28.9574 13.2109C29.8347 13.2109 30.381 12.8149 30.381 12.8149L31.3742 14.8443C31.3742 14.8443 30.4141 15.6033 28.5269 15.6033C26.0768 15.6033 23.8256 13.6234 23.8256 11.1485C23.8256 8.65704 26.0604 6.64426 28.5269 6.64426C30.4141 6.64426 31.3742 7.43615 31.3742 7.43615L30.381 9.43253C30.381 9.43253 29.8347 9.03665 28.9574 9.03665C27.8482 9.03665 26.9377 9.96054 26.9377 11.1154Z" fill="white"/>
<path fill-rule="evenodd" clip-rule="evenodd" d="M37.0527 13.1118C38.195 13.1118 39.0227 12.287 39.0227 11.132C39.0227 9.96057 38.1452 9.13557 37.0527 9.13557C35.9435 9.13557 35.0661 9.96057 35.0661 11.132C35.0661 12.287 35.8608 13.1118 37.0527 13.1118ZM37.0692 6.64418C39.8834 6.64418 42.1349 8.49207 42.1349 11.132C42.1349 13.7388 39.9993 15.6032 37.0692 15.6032C34.0066 15.6032 31.954 13.7388 31.954 11.132C31.954 8.49207 34.2052 6.64418 37.0692 6.64418Z" fill="white"/>
<path fill-rule="evenodd" clip-rule="evenodd" d="M43.4762 6.8916H46.4063V7.7826H46.4394C47.1016 7.12271 47.9458 6.64421 48.8728 6.64421C50.429 6.64421 52.5976 7.4196 52.5976 9.77899V15.3558H49.6676V10.571C49.6676 9.7296 49.0881 8.92099 48.1445 8.92099C47.2672 8.92099 46.4063 9.7296 46.4063 10.571V15.3558H43.4762V6.8916Z" fill="white"/>
<path fill-rule="evenodd" clip-rule="evenodd" d="M54.8163 3.74026H57.7465V6.89154H59.5344V9.11904H57.7465V11.8084C57.7465 12.6004 57.9452 12.9799 58.4086 12.9799C58.7894 12.9799 59.1369 12.7159 59.1369 12.7159L59.8655 15.0753C59.8655 15.0753 58.9218 15.6033 57.7133 15.6033C55.3793 15.6033 54.8163 13.8709 54.8163 12.3694V9.11904H53.5913V6.89154H54.8163V3.74026Z" fill="white"/>
<path fill-rule="evenodd" clip-rule="evenodd" d="M60.8588 6.8916H63.7889V8.1126H63.822C63.822 8.1126 64.749 6.64421 66.4209 6.64421C67.5136 6.64421 68.2751 7.1721 68.2751 7.1721L67.0501 9.6471C67.0501 9.6471 66.5037 9.1851 65.5271 9.1851C64.004 9.1851 63.7889 10.6865 63.7889 10.901V15.3558H60.8588V6.8916Z" fill="white"/>
<path fill-rule="evenodd" clip-rule="evenodd" d="M73.49 13.1118C74.6323 13.1118 75.4599 12.287 75.4599 11.132C75.4599 9.96057 74.5825 9.13557 73.49 9.13557C72.3808 9.13557 71.5034 9.96057 71.5034 11.132C71.5034 12.287 72.298 13.1118 73.49 13.1118ZM73.5064 6.64418C76.3207 6.64418 78.5721 8.49207 78.5721 11.132C78.5721 13.7388 76.4365 15.6032 73.5064 15.6032C70.4438 15.6032 68.3912 13.7388 68.3912 11.132C68.3912 8.49207 70.6425 6.64418 73.5064 6.64418Z" fill="white"/>
<path fill-rule="evenodd" clip-rule="evenodd" d="M79.9135 15.3558H82.8436V3.74026H79.9135V15.3558Z" fill="white"/>
<mask id="mask0_2315_49588" style="mask-type:alpha" maskUnits="userSpaceOnUse" x="0" y="0" width="89" height="22">
<path d="M0.000244141 22H88.6213V0H0.000244141V22Z" fill="#00A898"/>
</mask>
<g mask="url(#mask0_2315_49588)">
<path fill-rule="evenodd" clip-rule="evenodd" d="M88.6043 13.4672C88.756 14.6205 87.8623 15.6032 86.7174 15.6033C85.6854 15.6033 84.8302 14.7509 84.8302 13.7223C84.8303 12.5808 85.8167 11.6902 86.9741 11.8418C87.8155 11.9521 88.4941 12.6286 88.6043 13.4672Z" fill="#00A898"/>
</g>
<path d="M90.7826 3.66667H97.6725V6.65334H94.0627V8.03112H97.3766V11.0089H94.0627V15.4H90.7826V3.66667Z" fill="white"/>
<path d="M99.1362 3.66667H102.408V15.4H99.1362V3.66667Z" fill="white"/>
<path d="M111.677 9.53334L116 15.4H111.714L109.516 12.4667L107.546 15.4H103.752L107.354 9.51029L103.752 3.66667H108.075L109.516 6.60001L110.957 3.66667H115.248L111.677 9.53334Z" fill="white"/>
</svg>
