<svg width="143" height="249" viewBox="0 0 143 249" fill="none" xmlns="http://www.w3.org/2000/svg">
<path fill-rule="evenodd" clip-rule="evenodd" d="M127.091 0.779601H15.594C7.46659 0.779601 0.779702 7.9013 0.779702 16.8123V273.199C0.779702 282.11 7.4666 289.232 15.5941 289.232H127.091C135.219 289.232 141.906 282.11 141.906 273.199V16.8123C141.906 7.90131 135.219 0.779601 127.091 0.779601ZM15.594 0C6.98169 0 0 7.5271 0 16.8123V273.199C0 282.484 6.9817 290.011 15.5941 290.011H127.091C135.704 290.011 142.686 282.484 142.686 273.199V16.8123C142.686 7.52711 135.704 0 127.091 0H15.594Z" fill="#C8DCE0"/>
<path fill-rule="evenodd" clip-rule="evenodd" d="M126.312 5.45731H17.1534C10.7502 5.45731 5.45785 11.0874 5.45785 18.1627V271.849C5.45785 278.924 10.7502 284.554 17.1534 284.554H126.312C132.715 284.554 138.007 278.924 138.007 271.849V18.1627C138.007 11.0874 132.715 5.45731 126.312 5.45731ZM17.1534 4.67771C10.2635 4.67771 4.67815 10.7151 4.67815 18.1627V271.849C4.67815 279.296 10.2635 285.334 17.1534 285.334H126.312C133.202 285.334 138.787 279.296 138.787 271.849V18.1627C138.787 10.7151 133.202 4.67771 126.312 4.67771H17.1534Z" fill="#CCE1E6"/>
<path fill-rule="evenodd" clip-rule="evenodd" d="M15.594 0.779601H127.091C135.219 0.779601 141.906 7.90131 141.906 16.8123V273.199C141.906 282.11 135.219 289.232 127.091 289.232H15.5941C7.4666 289.232 0.779702 282.11 0.779702 273.199V16.8123C0.779702 7.9013 7.46659 0.779601 15.594 0.779601ZM126.312 4.67771H17.1534C10.2635 4.67771 4.67815 10.7151 4.67815 18.1627V271.849C4.67815 279.296 10.2635 285.334 17.1534 285.334H126.312C133.202 285.334 138.787 279.296 138.787 271.849V18.1627C138.787 10.7151 133.202 4.67771 126.312 4.67771Z" fill="#CCE1E6"/>
<path d="M17.1534 5.45731H126.312C132.715 5.45731 138.007 11.0874 138.007 18.1627V271.849C138.007 278.924 132.715 284.554 126.312 284.554H17.1534C10.7502 284.554 5.45785 278.924 5.45785 271.849V18.1627C5.45785 11.0874 10.7502 5.45731 17.1534 5.45731Z" fill="#10373F"/>
<path d="M108.526 63.3831H33.7432V138.166H108.526V63.3831Z" fill="white" fill-opacity="0.4"/>
<path d="M38.2755 67.9153V92.5666H62.9267V67.9153H38.2755ZM59.4051 89.045H41.7971V71.437H59.4051V89.045Z" fill="black"/>
<path d="M79.3424 67.9153V92.5666H103.994V67.9153H79.3424ZM100.472 89.045H82.864V71.437H100.472V89.045Z" fill="black"/>
<path d="M38.2755 108.982V133.634H62.9267V108.982H38.2755ZM59.4051 130.112H41.7971V112.504H59.4051V130.112Z" fill="black"/>
<path d="M55.8835 74.9586H45.3187V85.5234H55.8835V74.9586Z" fill="black"/>
<path d="M96.9505 74.9586H86.3857V85.5234H96.9505V74.9586Z" fill="black"/>
<path d="M55.8835 116.026H45.3187V126.591H55.8835V116.026Z" fill="black"/>
<path fill-rule="evenodd" clip-rule="evenodd" d="M27.3596 56.999H46.5113V58.823H29.1836V76.1507H27.3596V56.999Z" fill="#D9DB71"/>
<path fill-rule="evenodd" clip-rule="evenodd" d="M114.91 56.999V76.1507H113.086V58.823L95.7585 58.823V56.999L114.91 56.999Z" fill="#D9DB71"/>
<path fill-rule="evenodd" clip-rule="evenodd" d="M27.3596 144.55H46.5113V142.726H29.1836V125.398H27.3596V144.55Z" fill="#D9DB71"/>
<path fill-rule="evenodd" clip-rule="evenodd" d="M114.91 144.55V125.398H113.086V142.726H95.7585V144.55H114.91Z" fill="#D9DB71"/>
<path fill-rule="evenodd" clip-rule="evenodd" d="M85.541 204.226C85.541 212.426 78.8936 219.073 70.6935 219.073C62.4934 219.073 55.8459 212.426 55.8459 204.226C55.8459 196.026 62.4934 189.378 70.6935 189.378C78.8936 189.378 85.541 196.026 85.541 204.226ZM90.3306 204.226C90.3306 215.071 81.5387 223.863 70.6935 223.863C59.8482 223.863 51.0564 215.071 51.0564 204.226C51.0564 193.38 59.8482 184.589 70.6935 184.589C81.5387 184.589 90.3306 193.38 90.3306 204.226ZM70.6936 216.2C77.3066 216.2 82.6675 210.839 82.6675 204.226C82.6675 197.613 77.3066 192.252 70.6936 192.252C64.0807 192.252 58.7198 197.613 58.7198 204.226C58.7198 210.839 64.0807 216.2 70.6936 216.2Z" fill="white"/>
</svg>
