<svg width="110" height="32" viewBox="0 0 110 32" fill="none" xmlns="http://www.w3.org/2000/svg">
<path d="M105.926 32H4.07407C1.79259 32 0 30.24 0 28V4C0 1.76 1.79259 0 4.07407 0H105.926C108.207 0 110 1.76 110 4V28C110 30.24 108.207 32 105.926 32Z" fill="black"/>
<path d="M105.926 0.64C107.8 0.64 109.348 2.16 109.348 4V28C109.348 29.84 107.8 31.36 105.926 31.36H4.07407C2.2 31.36 0.651852 29.84 0.651852 28V4C0.651852 2.16 2.2 0.64 4.07407 0.64H105.926ZM105.926 0H4.07407C1.79259 0 0 1.84 0 4V28C0 30.24 1.79259 32 4.07407 32H105.926C108.207 32 110 30.24 110 28V4C110 1.84 108.207 0 105.926 0Z" fill="#A6A6A6"/>
<path d="M38.6222 8.16C38.6222 8.8 38.4593 9.36 38.0519 9.76C37.563 10.24 36.9926 10.48 36.2593 10.48C35.5259 10.48 34.9556 10.24 34.4667 9.76C33.9778 9.28 33.7334 8.72 33.7334 8C33.7334 7.28 33.9778 6.72 34.4667 6.24C34.9556 5.76 35.5259 5.52 36.2593 5.52C36.5852 5.52 36.9111 5.6 37.2371 5.76C37.563 5.92 37.8074 6.08 37.9704 6.32L37.563 6.72C37.2371 6.32 36.8297 6.16 36.2593 6.16C35.7704 6.16 35.2815 6.32 34.9556 6.72C34.5482 7.04 34.3852 7.52 34.3852 8.08C34.3852 8.64 34.5482 9.12 34.9556 9.44C35.363 9.76 35.7704 10 36.2593 10C36.8297 10 37.2371 9.84 37.6445 9.44C37.8889 9.2 38.0519 8.88 38.0519 8.48H36.2593V7.84H38.6222V8.16ZM42.3704 6.16H40.1704V7.68H42.2074V8.24H40.1704V9.76H42.3704V10.4H39.5185V5.6H42.3704V6.16ZM45.0593 10.4H44.4074V6.16H43.0222V5.6H46.4445V6.16H45.0593V10.4ZM48.8074 10.4V5.6H49.4593V10.4H48.8074ZM52.2296 10.4H51.5778V6.16H50.1926V5.6H53.5334V6.16H52.1482V10.4H52.2296ZM59.9704 9.76C59.4815 10.24 58.9111 10.48 58.1778 10.48C57.4445 10.48 56.8741 10.24 56.3852 9.76C55.8963 9.28 55.6519 8.72 55.6519 8C55.6519 7.28 55.8963 6.72 56.3852 6.24C56.8741 5.76 57.4445 5.52 58.1778 5.52C58.9111 5.52 59.4815 5.76 59.9704 6.24C60.4593 6.72 60.7037 7.28 60.7037 8C60.7037 8.72 60.4593 9.28 59.9704 9.76ZM56.8741 9.36C57.2 9.68 57.6889 9.92 58.1778 9.92C58.6667 9.92 59.1556 9.76 59.4815 9.36C59.8074 9.04 60.0519 8.56 60.0519 8C60.0519 7.44 59.8889 6.96 59.4815 6.64C59.1556 6.32 58.6667 6.08 58.1778 6.08C57.6889 6.08 57.2 6.24 56.8741 6.64C56.5482 6.96 56.3037 7.44 56.3037 8C56.3037 8.56 56.4667 9.04 56.8741 9.36ZM61.6 10.4V5.6H62.3334L64.6963 9.36V5.6H65.3482V10.4H64.6963L62.1704 6.48V10.4H61.6Z" fill="white"/>
<path fill-rule="evenodd" clip-rule="evenodd" d="M36.2593 5.6C35.5475 5.6 34.9979 5.8316 34.5243 6.29657C34.0507 6.76154 33.8148 7.30118 33.8148 8C33.8148 8.69883 34.0507 9.23847 34.5243 9.70343C34.9979 10.1684 35.5475 10.4 36.2593 10.4C36.971 10.4 37.5207 10.1684 37.9943 9.70343C38.381 9.32373 38.5408 8.78767 38.5408 8.16V7.92H36.3408V8.4H38.1334V8.48C38.1334 8.90344 37.9601 9.24322 37.7021 9.49657C37.4924 9.70242 37.2799 9.84922 37.0438 9.94405C36.8078 10.0388 36.5524 10.08 36.2593 10.08C35.7415 10.08 35.3155 9.82512 34.9047 9.50247C34.4714 9.16218 34.3037 8.65474 34.3037 8.08C34.3037 7.50839 34.4696 7.00335 34.8976 6.66311C35.2432 6.24407 35.756 6.08 36.2593 6.08C36.8161 6.08 37.2334 6.22913 37.5682 6.60174L37.864 6.31128C37.7137 6.11725 37.4967 5.97692 37.2006 5.83156C36.8847 5.67645 36.5711 5.6 36.2593 5.6ZM34.4091 6.18344C34.9133 5.6884 35.5044 5.44 36.2593 5.44C36.5993 5.44 36.9376 5.52356 37.2735 5.68845C37.6029 5.85015 37.8631 6.01783 38.0382 6.27563L38.0752 6.3302L37.5562 6.83977L37.4994 6.76998C37.192 6.39276 36.8103 6.24 36.2593 6.24C35.7875 6.24 35.3255 6.39413 35.0192 6.76998L35.0135 6.77692L35.0065 6.78247C34.6249 7.08218 34.4667 7.53474 34.4667 8.08C34.4667 8.62527 34.6249 9.07783 35.0065 9.37753C35.4105 9.69488 35.7993 9.92 36.2593 9.92C36.5365 9.92 36.77 9.88116 36.9821 9.79596C37.1942 9.71079 37.3891 9.57759 37.5869 9.38344C37.8011 9.17308 37.948 8.89933 37.9681 8.56H36.1778V7.76H38.7037V8.16C38.7037 8.81234 38.5376 9.39628 38.1095 9.81657C37.6053 10.3116 37.0142 10.56 36.2593 10.56C35.5044 10.56 34.9133 10.3116 34.4091 9.81657C33.9049 9.32154 33.6519 8.74118 33.6519 8C33.6519 7.25883 33.9049 6.67847 34.4091 6.18344ZM58.1778 5.6C57.466 5.6 56.9164 5.8316 56.4428 6.29657C55.9692 6.76154 55.7334 7.30118 55.7334 8C55.7334 8.69883 55.9692 9.23847 56.4428 9.70343C56.9164 10.1684 57.466 10.4 58.1778 10.4C58.8896 10.4 59.4392 10.1684 59.9128 9.70343C60.3863 9.23847 60.6222 8.69883 60.6222 8C60.6222 7.30118 60.3863 6.76154 59.9128 6.29657C59.4392 5.8316 58.8896 5.6 58.1778 5.6ZM56.3276 6.18344C56.8318 5.6884 57.4229 5.44 58.1778 5.44C58.9327 5.44 59.5238 5.6884 60.028 6.18344C60.5322 6.67847 60.7852 7.25883 60.7852 8C60.7852 8.74118 60.5322 9.32154 60.028 9.81657C59.5238 10.3116 58.9327 10.56 58.1778 10.56C57.4229 10.56 56.8318 10.3116 56.3276 9.81657C55.8234 9.32154 55.5704 8.74118 55.5704 8C55.5704 7.25883 55.8234 6.67847 56.3276 6.18344ZM39.4371 5.52H42.4519V6.24H40.2519V7.6H42.2889V8.32H40.2519V9.68H42.4519V10.48H39.4371V5.52ZM39.6 5.68V10.32H42.2889V9.84H40.0889V8.16H42.1259V7.76H40.0889V6.08H42.2889V5.68H39.6ZM42.9408 5.52H46.5259V6.24H45.1408V10.48H44.3259V6.24H42.9408V5.52ZM43.1037 5.68V6.08H44.4889V10.32H44.9778V6.08H46.363V5.68H43.1037ZM48.726 5.52H49.5408V10.48H48.726V5.52ZM48.8889 5.68V10.32H49.3778V5.68H48.8889ZM50.1111 5.52H53.6148V6.24H52.2296V10.48H51.4963V6.24H50.1111V5.52ZM52.0667 10.32H51.6593V6.08H50.2741V5.68H53.4519V6.08H52.0667V10.32ZM61.5185 5.52H62.3788L64.6148 9.078V5.52H65.4296V10.48H64.6515L62.2519 6.75609V10.48H61.5185V5.52ZM61.6815 5.68V10.32H62.0889V6.20392L64.7412 10.32H65.2667V5.68H64.7778V9.64201L62.2879 5.68H61.6815ZM56.8133 6.58657C57.1589 6.16498 57.6732 6 58.1778 6C58.6905 6 59.1977 6.24974 59.5359 6.58031C59.9666 6.92058 60.1334 7.42683 60.1334 8C60.1334 8.58137 59.8804 9.0799 59.5423 9.41344C59.1967 9.83503 58.6824 10 58.1778 10C57.6651 10 57.1579 9.75027 56.8197 9.41969C56.389 9.07942 56.2222 8.57318 56.2222 8C56.2222 7.41864 56.4752 6.92011 56.8133 6.58657ZM58.1778 6.16C57.706 6.16 57.244 6.31413 56.9377 6.68998L56.9349 6.69344L56.9317 6.69657C56.6196 7.00302 56.3852 7.46319 56.3852 8C56.3852 8.54527 56.5434 8.99783 56.925 9.29753L56.9285 9.3003L56.9317 9.30344C57.2453 9.61131 57.7143 9.84 58.1778 9.84C58.6496 9.84 59.1116 9.68588 59.4179 9.31003L59.4207 9.30657L59.4239 9.30344C59.736 8.99699 59.9704 8.53682 59.9704 8C59.9704 7.45474 59.8122 7.00218 59.4306 6.70247L59.4271 6.69971L59.4239 6.69657C59.1103 6.38869 58.6413 6.16 58.1778 6.16Z" fill="white"/>
<path d="M55.4889 17.44C53.5333 17.44 51.9852 18.88 51.9852 20.88C51.9852 22.8 53.5333 24.32 55.4889 24.32C57.4445 24.32 58.9926 22.88 58.9926 20.88C58.9926 18.8 57.4445 17.44 55.4889 17.44ZM55.4889 22.88C54.4296 22.88 53.5333 22 53.5333 20.8C53.5333 19.6 54.4296 18.72 55.4889 18.72C56.5482 18.72 57.4445 19.52 57.4445 20.8C57.4445 22 56.5482 22.88 55.4889 22.88ZM47.9111 17.44C45.9556 17.44 44.4074 18.88 44.4074 20.88C44.4074 22.8 45.9556 24.32 47.9111 24.32C49.8667 24.32 51.4148 22.88 51.4148 20.88C51.4148 18.8 49.8667 17.44 47.9111 17.44ZM47.9111 22.88C46.8519 22.88 45.9556 22 45.9556 20.8C45.9556 19.6 46.8519 18.72 47.9111 18.72C48.9704 18.72 49.8667 19.52 49.8667 20.8C49.8667 22 48.9704 22.88 47.9111 22.88ZM38.8667 18.48V19.92H42.3704C42.2889 20.72 41.963 21.36 41.5556 21.76C41.0667 22.24 40.2519 22.8 38.8667 22.8C36.6667 22.8 35.0371 21.12 35.0371 18.96C35.0371 16.8 36.7482 15.12 38.8667 15.12C40.0074 15.12 40.9037 15.6 41.5556 16.16L42.6148 15.12C41.7185 14.32 40.5778 13.68 38.9482 13.68C36.0148 13.68 33.4889 16.08 33.4889 18.96C33.4889 21.84 36.0148 24.24 38.9482 24.24C40.5778 24.24 41.7185 23.76 42.6963 22.72C43.6741 21.76 44 20.4 44 19.36C44 19.04 44 18.72 43.9185 18.48H38.8667ZM75.8593 19.6C75.5333 18.8 74.7185 17.44 72.9259 17.44C71.1334 17.44 69.6667 18.8 69.6667 20.88C69.6667 22.8 71.1333 24.32 73.0889 24.32C74.6371 24.32 75.6148 23.36 75.9408 22.8L74.8 22C74.3926 22.56 73.9037 22.96 73.0889 22.96C72.2741 22.96 71.7852 22.64 71.3778 21.92L76.0222 20L75.8593 19.6ZM71.1334 20.72C71.1334 19.44 72.1926 18.72 72.9259 18.72C73.4963 18.72 74.0667 19.04 74.2296 19.44L71.1334 20.72ZM67.3037 24H68.8519V14H67.3037V24ZM64.8593 18.16C64.4519 17.76 63.8 17.36 62.9852 17.36C61.2741 17.36 59.6445 18.88 59.6445 20.8C59.6445 22.72 61.1926 24.16 62.9852 24.16C63.8 24.16 64.4519 23.76 64.7778 23.36H64.8593V23.84C64.8593 25.12 64.1259 25.84 62.9852 25.84C62.0889 25.84 61.437 25.2 61.2741 24.64L59.9704 25.2C60.3778 26.08 61.3556 27.2 63.0667 27.2C64.8593 27.2 66.3259 26.16 66.3259 23.68V17.6H64.8593V18.16ZM63.0667 22.88C62.0074 22.88 61.1111 22 61.1111 20.8C61.1111 19.6 62.0074 18.72 63.0667 18.72C64.1259 18.72 64.9408 19.6 64.9408 20.8C64.9408 22 64.1259 22.88 63.0667 22.88ZM82.9482 14H79.2815V24H80.8296V20.24H82.9482C84.6593 20.24 86.2889 19.04 86.2889 17.12C86.2889 15.2 84.6593 14 82.9482 14ZM83.0296 18.8H80.8296V15.36H83.0296C84.1704 15.36 84.8222 16.32 84.8222 17.04C84.7408 17.92 84.0889 18.8 83.0296 18.8ZM92.4 17.36C91.2593 17.36 90.1185 17.84 89.7111 18.88L91.0963 19.44C91.4222 18.88 91.9111 18.72 92.4815 18.72C93.2963 18.72 94.0296 19.2 94.1111 20V20.08C93.8667 19.92 93.2148 19.68 92.563 19.68C91.0963 19.68 89.6296 20.48 89.6296 21.92C89.6296 23.28 90.8519 24.16 92.1556 24.16C93.2148 24.16 93.7037 23.68 94.1111 23.2H94.1926V24H95.6593V20.16C95.4963 18.4 94.1111 17.36 92.4 17.36ZM92.2371 22.88C91.7482 22.88 91.0148 22.64 91.0148 22C91.0148 21.2 91.9111 20.96 92.6445 20.96C93.2963 20.96 93.6222 21.12 94.0296 21.28C93.8667 22.24 93.0519 22.88 92.2371 22.88ZM100.793 17.6L99.0815 21.92H99L97.2074 17.6H95.5778L98.2667 23.68L96.7185 27.04H98.2667L102.422 17.6H100.793ZM87.1037 24H88.6519V14H87.1037V24Z" fill="white"/>
<path d="M8.47408 6.00001C8.22963 6.24001 8.14815 6.64001 8.14815 7.12001V24.8C8.14815 25.28 8.31111 25.68 8.55556 25.92L8.63704 26L18.7407 16.08V15.92L8.47408 6.00001Z" fill="url(#paint0_linear_2315_50010)"/>
<path d="M22 19.44L18.6593 16.16V15.92L22 12.64L22.0815 12.72L26.0741 14.96C27.2148 15.6 27.2148 16.64 26.0741 17.28L22 19.44Z" fill="url(#paint1_linear_2315_50010)"/>
<path d="M22.0815 19.36L18.6593 16L8.47408 26C8.88148 26.4 9.45186 26.4 10.1852 26.08L22.0815 19.36Z" fill="url(#paint2_linear_2315_50010)"/>
<path d="M22.0815 12.64L10.1852 6.00001C9.45186 5.60001 8.88148 5.68001 8.47408 6.08001L18.6593 16L22.0815 12.64Z" fill="url(#paint3_linear_2315_50010)"/>
<path d="M22 19.28L10.1852 25.84C9.53334 26.24 8.96297 26.16 8.55556 25.84L8.47408 25.92L8.55556 26C8.96297 26.32 9.53334 26.4 10.1852 26L22 19.28Z" fill="black"/>
<path d="M8.47408 25.84C8.22963 25.6 8.14815 25.2 8.14815 24.72V24.8C8.14815 25.28 8.31111 25.68 8.55556 25.92V25.84H8.47408ZM26.0741 17.04L22 19.28L22.0815 19.36L26.0741 17.12C26.6444 16.8 26.8889 16.4 26.8889 16C26.8889 16.4 26.563 16.72 26.0741 17.04Z" fill="black"/>
<path d="M10.1852 6.08001L26.0741 14.96C26.563 15.28 26.8889 15.6 26.8889 16C26.8889 15.6 26.6444 15.2 26.0741 14.88L10.1852 6.00001C9.04445 5.36001 8.14815 5.84001 8.14815 7.12001V7.20001C8.14815 6.00001 9.04445 5.44001 10.1852 6.08001Z" fill="white"/>
<defs>
<linearGradient id="paint0_linear_2315_50010" x1="99.8462" y1="1.5488" x2="93.4918" y2="43.552" gradientUnits="userSpaceOnUse">
<stop stop-color="#00A0FF"/>
<stop offset="0.007" stop-color="#00A1FF"/>
<stop offset="0.26" stop-color="#00BEFF"/>
<stop offset="0.512" stop-color="#00D2FF"/>
<stop offset="0.76" stop-color="#00DFFF"/>
<stop offset="1" stop-color="#00E3FF"/>
</linearGradient>
<linearGradient id="paint1_linear_2315_50010" x1="118.497" y1="15.8155" x2="-143.737" y2="15.8155" gradientUnits="userSpaceOnUse">
<stop stop-color="#FFE000"/>
<stop offset="0.409" stop-color="#FFBD00"/>
<stop offset="0.775" stop-color="#FFA500"/>
<stop offset="1" stop-color="#FF9C00"/>
</linearGradient>
<linearGradient id="paint2_linear_2315_50010" x1="95.0281" y1="5.70057" x2="57.7304" y2="104.65" gradientUnits="userSpaceOnUse">
<stop stop-color="#FF3A44"/>
<stop offset="1" stop-color="#C31162"/>
</linearGradient>
<linearGradient id="paint3_linear_2315_50010" x1="-20.4389" y1="-17.449" x2="-3.64676" y2="26.8931" gradientUnits="userSpaceOnUse">
<stop stop-color="#32A071"/>
<stop offset="0.069" stop-color="#2DA771"/>
<stop offset="0.476" stop-color="#15CF74"/>
<stop offset="0.801" stop-color="#06E775"/>
<stop offset="1" stop-color="#00F076"/>
</linearGradient>
</defs>
</svg>
